<svg xmlns="http://www.w3.org/2000/svg" width="182.086" height="26.23" viewBox="0 0 182.086 26.23">
    <defs>
        <style>
            .cls-1{isolation:isolate}.cls-2{fill:#1e344c}.cls-2,.cls-3,.cls-5{fill-rule:evenodd}.cls-3,.cls-4{fill:#73ac25}.cls-5{fill:#628c20}
        </style>
    </defs>
    <g id="Layer_1-2" class="cls-1" data-name="Layer 1-2" transform="translate(-310.899 -100.097)">
        <path id="Path_1" d="M565.581 134.664c-2.914 0-5.135-.786-6.615-2.406s-2.267-3.932-2.267-7.032c0-3.146.74-5.505 2.267-7.124s3.7-2.406 6.615-2.406 5.089.786 6.615 2.406 2.267 3.979 2.267 7.078-.74 5.459-2.267 7.032a8.867 8.867 0 0 1-6.615 2.452zm0-3.423a6.6 6.6 0 0 0 2.128-.324 3.026 3.026 0 0 0 1.391-1.017 5.457 5.457 0 0 0 .786-1.85 11.634 11.634 0 0 0 .231-2.822 14.243 14.243 0 0 0-.278-2.822 4.6 4.6 0 0 0-.786-1.9 3.5 3.5 0 0 0-1.388-1.064 6.853 6.853 0 0 0-4.164 0 2.938 2.938 0 0 0-1.434 1.064 4.055 4.055 0 0 0-.786 1.9 11.64 11.64 0 0 0-.231 2.822 14.232 14.232 0 0 0 .231 2.822 4.674 4.674 0 0 0 .786 1.85 3.025 3.025 0 0 0 1.388 1.018 5.678 5.678 0 0 0 2.126.323z" class="cls-2" data-name="Path 1" transform="translate(-132.089 -8.383)"/>
        <path id="Path_2" d="M520.9 116.167a43.431 43.431 0 0 1 5.505-.37 22.527 22.527 0 0 1 4.3.37 7.855 7.855 0 0 1 2.961 1.2 5.018 5.018 0 0 1 1.712 2.082 8.438 8.438 0 0 1 .555 3.007 5.822 5.822 0 0 1-2.313 5.043c-1.527 1.11-3.886 1.619-7.032 1.619h-.688a3.5 3.5 0 0 1-.694-.046v5.366h-4.3zm6.338 9.669a9.805 9.805 0 0 0 2.036-.185 3.758 3.758 0 0 0 1.342-.555 2.624 2.624 0 0 0 .74-1.018 6.161 6.161 0 0 0 .231-1.573 4.474 4.474 0 0 0-.231-1.573 2.374 2.374 0 0 0-.694-1.064 3.245 3.245 0 0 0-1.3-.555 9.8 9.8 0 0 0-2.036-.185 10.06 10.06 0 0 0-1.156.046c-.416.046-.74.046-1.018.093v6.43a4.909 4.909 0 0 0 .971.093c.416 0 .74.046 1.11.046z" class="cls-2" data-name="Path 2" transform="translate(-112.85 -8.437)"/>
        <path id="Path_3" d="M356.886 128.334c-.278 0-.555.046-.879.046h-2.452v6.153H349.3v-18.366a43.43 43.43 0 0 1 5.505-.37 22.527 22.527 0 0 1 4.3.37 7.766 7.766 0 0 1 2.961 1.157 4.637 4.637 0 0 1 1.712 1.943 7.54 7.54 0 0 1 .555 2.868 5.41 5.41 0 0 1-3.7 5.459l4.487 6.939h-4.72l-3.516-6.2zm-1.249-3.238a14.55 14.55 0 0 0 2.035-.139 2.992 2.992 0 0 0 1.342-.509 2.068 2.068 0 0 0 .74-.925 3.736 3.736 0 0 0 .231-1.434 3.648 3.648 0 0 0-.231-1.388 1.8 1.8 0 0 0-.74-.925 3.448 3.448 0 0 0-1.3-.509 14.376 14.376 0 0 0-1.989-.139 9.684 9.684 0 0 0-1.11.046c-.416.046-.786.046-1.064.093v5.69a2.62 2.62 0 0 0 .833.139z" class="cls-3" data-name="Path 3" transform="translate(-20.635 -8.437)"/>
        <path id="Path_4" d="M318.116 134.718c-1.157 0-2.359-.046-3.516-.093s-2.406-.139-3.7-.278v-18.18c1.3-.139 2.452-.231 3.516-.278s2.128-.093 3.146-.093c2.776 0 4.765.416 6.014 1.249a4.355 4.355 0 0 1 1.85 3.932 3.743 3.743 0 0 1-3.146 3.979v.093a4.811 4.811 0 0 1 2.822 1.48 4.969 4.969 0 0 1-.971 6.893c-1.297.878-3.331 1.296-6.015 1.296zm-.046-3.007c2.452 0 3.7-.879 3.7-2.637a2.246 2.246 0 0 0-.833-1.943 4.748 4.748 0 0 0-2.776-.6h-3.238v5c.139.046.324.046.463.093l.6.046h.833zm-.185-7.957a4.58 4.58 0 0 0 2.591-.555 2.239 2.239 0 0 0 .74-1.943 2.162 2.162 0 0 0-.786-1.9 4.653 4.653 0 0 0-2.637-.555c-.555 0-1.064 0-1.527.046a6.166 6.166 0 0 0-1.3.139v4.765z" class="cls-3" data-name="Path 4" transform="translate(0 -8.437)"/>
        <path id="Path_5" d="M679.844 116.3h.324v3.331h-5.413v15.081H670.5v-12.679a74.391 74.391 0 0 0 9.344-5.733z" class="cls-2" data-name="Path 5" transform="translate(-193.243 -8.706)"/>
        <path id="Path_6" d="M663.625 119.628H659V116.3h9.854a55.584 55.584 0 0 1-5.229 3.328z" class="cls-2" data-name="Path 6" transform="translate(-187.063 -8.706)"/>
        <path id="Path_7" d="M621.846 144.5v5.413H618.1v-4.719c1.248-.234 2.5-.419 3.746-.694z" class="cls-2" data-name="Path 7" transform="translate(-165.084 -23.86)"/>
        <path id="Path_8" d="M646 124.724V116.4h3.7v6.8a107.989 107.989 0 0 1-3.7 1.524z" class="cls-2" data-name="Path 8" transform="translate(-180.077 -8.759)"/>
        <path id="Path_9" d="M639.554 137.909l.833 1.2h.231v-1.573c1.249-.416 2.452-.879 3.7-1.342v9.206H640.9l-5-6.43c1.2-.321 2.4-.645 3.654-1.061z" class="cls-2" data-name="Path 9" transform="translate(-174.649 -19.4)"/>
        <path id="Path_10" d="M618.1 116.3h3.423l7.217 9.206c-1.2.416-2.359.833-3.608 1.249L623.7 124.9l-1.619-2.267h-.185v5.135c-1.249.37-2.5.694-3.747 1.018z" class="cls-2" data-name="Path 10" transform="translate(-165.084 -8.706)"/>
        <path id="Path_11" d="M605.455 147v4.256H601.2v-3.886c1.387-.095 2.821-.234 4.255-.37z" class="cls-2" data-name="Path 11" transform="translate(-156.002 -25.203)"/>
        <path id="Path_12" d="M601.1 116.3h4.256v13.32c-1.388.324-2.822.6-4.256.925z" class="cls-2" data-name="Path 12" transform="translate(-155.949 -8.706)"/>
        <path id="Path_13" d="M488.966 119.628H483.6V116.3h15.035v3.331h-5.413v15.128h-4.256z" class="cls-3" data-name="Path 13" transform="translate(-92.806 -8.706)"/>
        <path id="Path_14" d="M442.6 116.3h4.256v7.309h8.188V116.3h4.256v18.458h-4.256v-7.818h-8.188v7.818H442.6z" class="cls-3" data-name="Path 14" transform="translate(-70.774 -8.706)"/>
        <path id="Path_15" d="M412.4 134.657c-3.146 0-5.505-.786-7.032-2.359s-2.267-3.932-2.267-7.171c0-3.192.786-5.6 2.406-7.171 1.573-1.573 4.025-2.359 7.309-2.359a17.441 17.441 0 0 1 2.683.185 22.445 22.445 0 0 1 2.544.416v3.423a52.41 52.41 0 0 0-2.822-.416 15.918 15.918 0 0 0-2.128-.139 10.753 10.753 0 0 0-2.729.324 3.758 3.758 0 0 0-1.758 1.018 3.9 3.9 0 0 0-.925 1.85 14.706 14.706 0 0 0-.278 2.868 14.232 14.232 0 0 0 .231 2.822 4.485 4.485 0 0 0 .833 1.85 3.569 3.569 0 0 0 1.573 1.018 8.61 8.61 0 0 0 2.406.324 6.211 6.211 0 0 0 .879-.046c.324-.046.648-.046.972-.093v-6.014h3.886v8.79c-1.018.278-2.036.463-3.1.648a16.552 16.552 0 0 1-2.683.232z" class="cls-3" data-name="Path 15" transform="translate(-49.547 -8.33)"/>
        <path id="Rectangle_7" d="M0 0h4.256v18.412H0z" class="cls-4" data-name="Rectangle 7" transform="translate(346.521 107.591)"/>
        <path id="Path_16" d="M692.373 102.873v5.274h2.776V100.1H687.1v2.776z" class="cls-3" data-name="Path 16" transform="translate(-202.164)"/>
        <path id="Path_17" d="M696.761 100.1l-6.662 2.776h3.886v3.608z" class="cls-5" data-name="Path 17" transform="translate(-203.776)"/>
    </g>
</svg>
