<svg xmlns="http://www.w3.org/2000/svg" width="200" height="30" viewBox="0 0 200 30">
    <g fill="none" fill-rule="nonzero">
        <path fill="#FFA400" d="M10.62.097c3.144-.4 8.486.314 11.658 4.543 2.371 3.171 2.886 7.942 1.914 11.485-1.2 4.229-3.686 6.829-7.4 8.029-3.714 1.2-9.286 1.086-13.057-2.457C.621 18.725-.294 14.01.078 10.982c.457-3.657 2.057-7.4 6.057-9.571A14.971 14.971 0 0 1 10.621.097zM9.365 6.01c-2.4 1.457-3.372 3.886-3.515 6.086-.143 2.2.715 4.685 2.857 6.314 2.143 1.629 4.343 1.543 6.2.657 2.4-1.143 3.515-3.286 3.858-5.486.342-2.2-.315-4.828-2.2-6.657-1.886-1.828-4.343-2.028-6-1.485a7.943 7.943 0 0 0-1.2.571zM37.05 6.211v5.2h-.658c-1.743 0-2.6-.057-3.371.686-.772.743-.686 1.971-.686 3.685v8.429H26.65v-9.686c0-2.114-.085-4.343 1.857-6.371C30.45 6.125 33.25 6.21 35.592 6.21h1.457zM55.42 6.211v18h-5.628V11.44H48.05c-2.085 0-3.971-.058-5.028 1.885a4.429 4.429 0 0 0 .085 3.943c1 1.829 2.943 1.857 4.83 1.857h.428v5.086h-1.172c-3.4 0-6.6-.086-9.114-4.571-1.286-2.286-1.343-6.372.086-9.143 2.085-4 5.285-4.286 8.514-4.286h8.743zM57.878 6.211h8.743c1.685 0 4.428-.029 6.428 2.143 2 2.171 1.943 4.686 1.943 7.114v8.743H69.25v-7.8c0-2.229-.057-3.686-1.028-4.543-.972-.857-2.486-.543-4.657-.543v12.886h-5.686v-18zM95.164 6.211v16.686c0 1.914.085 3.428-1.4 5-1.486 1.571-3.772 1.4-5.4 1.4h-5.6v-4.943h6.714V11.125H87.42c-1.715 0-3.657.057-4.657 1.6a3.714 3.714 0 0 0 0 3.543c1.057 1.686 2.942 1.543 4.4 1.543h1.142v5.057h-2.542c-2.8 0-5.858-.114-7.943-4.257-1.257-2.457-1.4-6.114.114-8.8 2.143-3.743 5.486-3.6 8.571-3.6h8.658zM115.42 6.211v5.171l-3.6 6.572h-5.742l3.543-6.572h-.4c-2.943 0-4.772-.2-6.086 1.886-.714 1.143-.686 2.857-.114 4.114.828 1.915 3.285 1.972 4.971 1.972h7.429v4.857h-8.315c-2.77 0-6.8-.429-9-4.514-1.457-2.657-1.485-6.343 0-9.172 2.258-4.257 5.315-4.314 8.572-4.314h8.743z"/>
        <path fill="#898A8D" d="M119.192.611h5.6c-.514 1.514-.4 3.286 1.286 4.8l1.086 1c4.571 4.114 5.428 8.886 4.142 12.114-2.17 5.315-6 5.686-10.657 5.686h-2.771v-5.057h1.2c1.543 0 5.657.343 6.743-2.457.885-2.2-.4-4-2.6-6.086l-1.029-.971c-3.257-3.143-4-5.943-3-9.029zM134.392.925h5.686v5.286h3.057c1.629 0 4.4-.029 6.429 2.143 2.028 2.171 1.914 4.686 1.914 7.114v8.743h-5.743v-7.8c0-2.229-.057-3.686-1.029-4.543-.97-.857-2.457-.543-4.628-.543v12.886h-5.686V.925zM153.935 7.411h5.657v16.8h-5.657v-16.8zm.029-6.486h5.6v5.086h-5.6V.925zM162.506 6.211h8.743c1.686 0 4.4-.029 6.429 2.143 2.028 2.171 1.914 4.686 1.914 7.114v8.743h-5.743v-7.8c0-2.229-.028-3.686-1-4.543-.971-.857-2.485-.543-4.657-.543v12.886h-5.686v-18zM199.85 6.211v5.171l-3.6 6.572h-5.744l3.543-6.572h-.4c-2.943 0-4.771-.2-6.085 1.886-.715 1.143-.686 2.857-.115 4.114.829 1.915 3.286 1.972 4.972 1.972h7.428v4.857h-8.314c-2.771 0-6.8-.429-9-4.514-1.457-2.657-1.486-6.343 0-9.172 2.257-4.257 5.314-4.314 8.571-4.314h8.743z"/>
    </g>
</svg>
