
<svg width="13px" height="14px" viewBox="0 0 13 14" version="1.1" 
  xmlns="http://www.w3.org/2000/svg" 
  xmlns:xlink="http://www.w3.org/1999/xlink">
  <!-- Generator: Sketch 51.2 (57519) - http://www.bohemiancoding.com/sketch -->
  <desc>Created with Sketch.</desc>
  <defs></defs>
  <g id="Page-1" stroke="none" stroke-width="1" fill="none" fill-rule="evenodd">
    <g id="Desktop" transform="translate(-453.000000, -407.000000)" fill="#FFFFFF">
      <g id="Email-Form" transform="translate(73.000000, 389.000000)">
        <g id="btn" transform="translate(312.000000, 7.000000)">
          <g id="send-icon" transform="translate(68.000000, 11.000000)">
            <path d="M12.3326657,0.114593981 L0.357381953,6.9131817 C-0.135877717,7.19073088 -0.116298908,7.60226932 0.402223741,7.82376177 L1.92937084,8.47798484 C2.44473561,8.69674282 3.22662482,8.57710955 3.66620066,8.20590461 L10.3072063,2.53938942 C10.7436243,2.16545 10.7909924,2.22150674 10.4107845,2.66175716 L5.16113746,8.74527975 C4.78029805,9.1827957 4.89461303,9.71943636 5.41187253,9.93887795 L5.59060811,10.0127088 C6.10849918,10.2300995 6.95417741,10.593101 7.46764747,10.8227969 L9.1646881,11.5679413 C9.68068445,11.7949027 10.1000499,11.984265 10.1025762,11.9869995 C10.1025762,11.989734 10.1051025,11.9999883 10.1076288,11.9999883 C10.1095235,12.0027227 10.2307858,11.5276078 10.376048,10.9478991 L12.9617139,0.66148892 C13.1076076,0.082463903 12.8233991,-0.16363882 12.3326657,0.114593981" id="Fill-1"></path>
            <path d="M5.54158906,10.6644478 L4.53616907,10.0893708 C4.09413098,9.83881239 3.88232105,10.1331431 4.06650359,10.7467094 C4.06650359,10.7467094 4.99987571,13.8832183 4.97441518,13.9956677 C4.9467878,14.1043437 5.8714925,12.1323279 5.8714925,12.1323279 C6.13205662,11.5783824 5.98362716,10.9150062 5.54158906,10.6644478" id="Fill-4"></path>
          </g>
        </g>
      </g>
    </g>
  </g>
</svg>