<?xml version="1.0" encoding="utf-8"?>
<!-- Generator: Adobe Illustrator 16.0.0, SVG Export Plug-In . SVG Version: 6.00 Build 0)  -->
<!DOCTYPE svg PUBLIC "-//W3C//DTD SVG 1.0//EN" "http://www.w3.org/TR/2001/REC-SVG-20010904/DTD/svg10.dtd">
<svg version="1.0" id="Layer_1" xmlns="http://www.w3.org/2000/svg" xmlns:xlink="http://www.w3.org/1999/xlink" x="0px" y="0px"
	 width="308px" height="203.333px" viewBox="0 0 308 203.333" enable-background="new 0 0 308 203.333" xml:space="preserve">
<g id="Layer_2">
</g>
<g>
	<g>
		<polyline fill="none" stroke="#5166AF" stroke-miterlimit="10" points="100.52,195.157 100.52,135.124 54.215,135.124 
			12.829,135.124 12.829,119.997 		"/>
		<line fill="none" stroke="#5166AF" stroke-miterlimit="10" x1="100.52" y1="135.122" x2="100.52" y2="102.936"/>
		<polyline fill="none" stroke="#5166AF" stroke-miterlimit="10" points="100.52,188.44 115.263,188.44 115.263,158.538 		"/>
		<line fill="none" stroke="#5166AF" stroke-miterlimit="10" x1="100.52" y1="172.786" x2="45.557" y2="172.786"/>
		<line fill="none" stroke="#5166AF" stroke-miterlimit="10" x1="81.966" y1="135.122" x2="81.966" y2="172.786"/>
		<ellipse fill="none" stroke="#5166AF" stroke-miterlimit="10" cx="115.263" cy="155.323" rx="3.128" ry="3.215"/>
		<line fill="none" stroke="#5166AF" stroke-miterlimit="10" x1="81.966" y1="146.002" x2="60.211" y2="146.002"/>
		<ellipse fill="none" stroke="#5166AF" stroke-miterlimit="10" cx="57.343" cy="146.002" rx="3.126" ry="3.215"/>
		<polyline fill="none" stroke="#5166AF" stroke-miterlimit="10" points="139.668,196.124 139.668,136.088 185.971,136.088 		"/>
		<line fill="none" stroke="#5166AF" stroke-miterlimit="10" x1="139.668" y1="136.088" x2="139.668" y2="103.903"/>
		<polyline fill="none" stroke="#5166AF" stroke-miterlimit="10" points="132.473,74.119 132.473,104.022 151.898,104.022 
			151.898,87.756 		"/>
		<line fill="none" x1="139.668" y1="173.752" x2="187.977" y2="173.752"/>
		<line fill="none" x1="158.223" y1="136.088" x2="158.223" y2="173.752"/>
		<ellipse fill="none" stroke="#5166AF" stroke-miterlimit="10" cx="132.473" cy="70.905" rx="3.125" ry="3.214"/>
		<ellipse fill="#5166AF" cx="189.099" cy="136.089" rx="3.128" ry="3.215"/>
		<line fill="none" x1="158.223" y1="135.918" x2="158.223" y2="113.547"/>
		<ellipse fill="#5166AF" cx="158.223" cy="110.599" rx="3.128" ry="3.215"/>
		<path fill="#5166AF" d="M22.161,171.958c0-1.381,0.511-2.158,1.576-2.158c1.057,0,1.565,0.81,1.565,2.158v3.053
			c0,1.349-0.521,2.169-1.565,2.169c-1.053,0-1.576-0.788-1.576-2.169V171.958z M23.229,175.122c0,0.723,0.17,0.951,0.509,0.951
			c0.33,0,0.502-0.229,0.502-0.951v-3.274c0-0.712-0.172-0.942-0.502-0.942c-0.339,0-0.509,0.23-0.509,0.942V175.122z"/>
		<path fill="#5166AF" d="M26.223,171.801c-0.17-0.118-0.213-0.371-0.086-0.547l0.979-1.303c0.044-0.066,0.214-0.152,0.299-0.152
			h0.296c0.218,0,0.387,0.174,0.387,0.393v6.594c0,0.219-0.169,0.394-0.387,0.394h-0.308c-0.202,0-0.372-0.175-0.372-0.394v-4.918
			l-0.053,0.055c-0.128,0.176-0.384,0.219-0.554,0.065L26.223,171.801z"/>
		<path fill="#5166AF" d="M28.704,171.958c0-1.381,0.513-2.158,1.578-2.158c1.054,0,1.563,0.81,1.563,2.158v3.053
			c0,1.349-0.52,2.169-1.563,2.169c-1.056,0-1.578-0.788-1.578-2.169V171.958z M29.771,175.122c0,0.723,0.17,0.951,0.512,0.951
			c0.329,0,0.499-0.229,0.499-0.951v-3.274c0-0.712-0.17-0.942-0.499-0.942c-0.342,0-0.512,0.23-0.512,0.942V175.122z"/>
		<path fill="#5166AF" d="M32.765,171.801c-0.17-0.118-0.215-0.371-0.083-0.547l0.978-1.303c0.043-0.066,0.214-0.152,0.298-0.152
			h0.299c0.212,0,0.383,0.174,0.383,0.393v6.594c0,0.219-0.171,0.394-0.383,0.394h-0.309c-0.202,0-0.372-0.175-0.372-0.394v-4.918
			l-0.055,0.055c-0.13,0.176-0.384,0.219-0.554,0.065L32.765,171.801z"/>
		<path fill="#5166AF" d="M35.248,171.958c0-1.381,0.512-2.158,1.575-2.158c1.055,0,1.565,0.81,1.565,2.158v3.053
			c0,1.349-0.521,2.169-1.565,2.169c-1.056,0-1.575-0.788-1.575-2.169V171.958z M36.313,175.122c0,0.723,0.17,0.951,0.511,0.951
			c0.329,0,0.5-0.229,0.5-0.951v-3.274c0-0.712-0.171-0.942-0.5-0.942c-0.341,0-0.511,0.23-0.511,0.942V175.122z"/>
		<path fill="#5166AF" d="M39.306,171.801c-0.169-0.118-0.212-0.371-0.083-0.547l0.979-1.303c0.043-0.066,0.212-0.152,0.297-0.152
			h0.299c0.215,0,0.387,0.174,0.387,0.393v6.594c0,0.219-0.172,0.394-0.387,0.394H40.49c-0.203,0-0.374-0.175-0.374-0.394v-4.918
			l-0.052,0.055c-0.128,0.176-0.384,0.219-0.558,0.065L39.306,171.801z"/>
		<path fill="#5166AF" d="M86.996,105.104c0-1.38,0.51-2.157,1.577-2.157c1.056,0,1.567,0.81,1.567,2.157v3.057
			c0,1.346-0.522,2.168-1.567,2.168c-1.054,0-1.577-0.789-1.577-2.168V105.104z M88.062,108.269c0,0.724,0.172,0.953,0.512,0.953
			c0.331,0,0.501-0.229,0.501-0.953v-3.272c0-0.713-0.17-0.942-0.501-0.942c-0.34,0-0.512,0.229-0.512,0.942V108.269z"/>
		<path fill="#5166AF" d="M90.938,105.104c0-1.38,0.512-2.157,1.578-2.157c1.053,0,1.564,0.81,1.564,2.157v3.057
			c0,1.346-0.522,2.168-1.564,2.168c-1.054,0-1.578-0.789-1.578-2.168V105.104z M92.004,108.269c0,0.724,0.172,0.953,0.513,0.953
			c0.327,0,0.501-0.229,0.501-0.953v-3.272c0-0.713-0.174-0.942-0.501-0.942c-0.341,0-0.513,0.229-0.513,0.942V108.269z"/>
		<path fill="#5166AF" d="M94.999,104.952c-0.171-0.121-0.216-0.373-0.085-0.548l0.979-1.304c0.045-0.064,0.213-0.152,0.298-0.152
			h0.297c0.216,0,0.385,0.174,0.385,0.393v6.593c0,0.219-0.169,0.396-0.385,0.396h-0.306c-0.202,0-0.374-0.176-0.374-0.396v-4.916
			l-0.053,0.054c-0.13,0.176-0.384,0.221-0.556,0.064L94.999,104.952z"/>
		<path fill="#5166AF" d="M172.494,110.97c0-1.386,0.402-2.296,0.986-2.843c0.6-0.547,1.33-0.711,2.021-0.711
			c0.674,0,1.403,0.164,2.004,0.711c0.582,0.547,0.967,1.457,0.967,2.843v0.254c0,0.366-0.293,0.657-0.639,0.657h-0.528
			c-0.365,0-0.657-0.291-0.657-0.657v-0.254c0-1.22-0.4-1.749-1.146-1.749c-0.765,0-1.168,0.529-1.168,1.749v5.157
			c0,1.22,0.385,1.768,1.168,1.768c0.347,0,0.676-0.146,0.84-0.329c0.217-0.292,0.308-0.784,0.308-1.438v-0.256
			c0-0.363,0.292-0.654,0.657-0.654h0.529c0.345,0,0.638,0.291,0.638,0.654v0.256c0,1.438-0.384,2.276-0.948,2.842
			c-0.602,0.582-1.367,0.729-2.021,0.729c-0.691,0-1.439-0.146-2.041-0.729c-0.564-0.564-0.967-1.403-0.967-2.842v-5.157H172.494z"
			/>
		<path fill="#5166AF" d="M182.738,119.697c-0.271,0-0.563-0.237-0.617-0.511l-0.621-4.1v3.955c0,0.365-0.311,0.655-0.656,0.655
			h-0.51c-0.365,0-0.653-0.29-0.653-0.655v-10.971c0-0.363,0.288-0.654,0.653-0.654h0.549c0.271,0,0.564,0.236,0.617,0.51
			l1.439,7.343l1.42-7.343c0.057-0.273,0.364-0.51,0.639-0.51h0.547c0.365,0,0.656,0.291,0.656,0.654v10.971
			c0,0.365-0.291,0.655-0.656,0.655h-0.51c-0.365,0-0.654-0.29-0.654-0.655v-3.918l-0.604,4.043
			c-0.072,0.293-0.365,0.529-0.637,0.529L182.738,119.697L182.738,119.697z"/>
		<polyline fill="#5166AF" points="174.238,136.088 174.238,147.086 233.486,147.086 		"/>
	</g>
	<rect x="140.24" y="17.433" fill="#FFFFFF" width="150.367" height="146.69"/>
	<g>
		<g>
			<defs>
				<rect id="SVGID_1_" x="124.508" y="27.667" width="152.4" height="146.83"/>
			</defs>
			<clipPath id="SVGID_2_">
				<use xlink:href="#SVGID_1_"  overflow="visible"/>
			</clipPath>
			<g clip-path="url(#SVGID_2_)">
				<g id="Layer_1_1_">
					<defs>
						<rect id="SVGID_3_" x="108.149" y="26.848" width="167.183" height="147.029"/>
					</defs>
					<clipPath id="SVGID_4_">
						<use xlink:href="#SVGID_3_"  overflow="visible"/>
					</clipPath>
					<g clip-path="url(#SVGID_4_)">
						<g>
							<g>
								<g>
									<g>
										<path fill="#5166AF" d="M181.4,82.611l1.51,0.098l2.869,20.295c0,0-5.453,5.125-7.959,0.226
											c-5.217-10.2-7.206-8.121-6.518-16.55c0.46-5.625,9.105-5.415,9.105-5.415L181.4,82.611z"/>
										<path fill="#5166AF" d="M236.114,82.611l-1.511,0.098l-2.867,20.295c0,0,2.948,10.027,5.453,5.125
											c5.216-10.199,9.714-13.021,9.023-21.45c-0.461-5.625-9.105-5.415-9.105-5.415L236.114,82.611z"/>
										<path fill="#5166AF" d="M228.192,138.917l-0.896-19.229h-37.293l-0.894,19.229c-22.577,5.475-45.531,18.039-45.531,23.979
											c0,7.715,0,29.706,0,29.706h65.069h65.07c0,0,0-21.991,0-29.706C273.721,156.956,250.768,144.391,228.192,138.917z"/>
										<path fill="#5166AF" d="M208.649,45.256c-31.776,0-32.687,24.895-31.493,45.111c0.616,10.477,5.023,18.995,10.295,26.187
											c4.862,6.639,10.149,12.368,21.198,12.368c10.49,0,15.545-3.166,20.409-9.234c5.813-7.248,10.439-18.356,11.086-29.32
											C241.335,70.151,240.428,45.256,208.649,45.256z"/>
									</g>
									<g>
										<path fill="#5166AF" d="M228.218,137.963c-7.576,5.154-16.657,10.662-18.996,9.22l-15.055-1.788l-8.051-6.412
											c-21.854,5.821-43.047,17.496-43.047,23.155c0,7.717,0,29.707,0,29.707h66.131h66.131c0,0,0-21.99,0-29.707
											C275.332,156.127,251.429,143.329,228.218,137.963z"/>
										<path fill="#5166AF" d="M189.509,132.889c0,0-8.656,1.621-10.422,7.668c-0.961,3.283,18.078,15.332,20.797,17.145
											c2.721,1.812,8.678-9.191,9.215-10.519C209.64,145.857,199.365,143.946,189.509,132.889z"/>
										<path fill="#5166AF" d="M228.732,132.889c0,0,8.654,1.621,10.422,7.668c0.96,3.283-18.076,15.332-20.798,17.145
											c-2.719,1.812-8.678-9.191-9.217-10.519C208.601,145.857,218.875,143.946,228.732,132.889z"/>
										<ellipse fill="#5166AF" cx="209.203" cy="158.995" rx="2.448" ry="2.41"/>
										<ellipse fill="#5166AF" cx="209.203" cy="167.315" rx="2.448" ry="2.412"/>
									</g>
									<g>
										<path fill="#5166AF" d="M188.509,88.815c2.396-1.083,4.713-0.751,5.57-0.578c2.922,0.585,4.99,2.902,4.983,2.911
											c-0.003,0.002-0.276-0.181-0.835-0.486c-0.762-0.417-2.018-1-3.646-1.322c-0.107-0.021-0.248-0.046-0.412-0.073
											c0.468,0.411,0.756,0.981,0.756,1.611c0,1.258-1.149,2.702-2.568,2.702s-2.566-1.444-2.566-2.702
											c0-0.63,0.289-1.2,0.756-1.613c-0.541,0.089-1.11,0.223-1.691,0.427c-0.716,0.25-1.271,0.538-1.656,0.759
											c-0.516,0.296-1.031,0.594-1.547,0.89C186.105,90.793,187.037,89.48,188.509,88.815z"/>
										<g>
											<path fill="#5166AF" d="M182.637,86.462c0,0,2.133-1.454,4.653-1.746c2.521-0.29,7.078,0.68,9.31,0.583
												c0,0,1.551,0.195,2.229,0.484c0.68,0.292,2.037,1.163,2.715,1.067c0.68-0.097,0.775-1.455-0.096-3.005
												c0,0,0.096,0.774,0,1.358c0,0-0.68-1.94-1.359-2.424c0,0,0.389,1.162,0.488,1.745c0,0-1.266-1.358-1.457-1.649
												c-0.195-0.291-3.104-0.484-5.723-0.775c-2.617-0.292-5.723-1.648-5.723-1.648s-1.162,0.874-2.131,1.745
												C184.574,83.069,183.121,85.008,182.637,86.462z"/>
											<path fill="#5166AF" d="M201.432,86.585c-0.438,0-1.228-0.411-1.804-0.709c-0.256-0.134-0.5-0.26-0.692-0.342
												c-0.707-0.301-2.237-0.496-2.304-0.504c-0.01-0.002-0.021-0.002-0.03-0.002c-0.006,0-0.011,0-0.015,0
												c-0.104,0.003-0.213,0.006-0.323,0.006c-0.938,0-2.2-0.144-3.536-0.296l-0.211-0.023
												c-1.559-0.178-2.939-0.324-4.139-0.324c-0.418,0-0.795,0.018-1.119,0.055c-1.696,0.198-3.206,0.894-4.057,1.359
												c0.612-1.237,1.715-2.678,2.523-3.406c0.766-0.69,1.664-1.387,1.988-1.636c0.654,0.275,3.318,1.348,5.656,1.606
												c0.67,0.075,1.358,0.142,2.02,0.207c1.441,0.144,3.229,0.32,3.525,0.478c0.244,0.346,1.334,1.518,1.459,1.653
												c0.054,0.057,0.125,0.088,0.201,0.088c0.039,0,0.077-0.01,0.116-0.028c0.108-0.052,0.169-0.17,0.149-0.288
												c-0.006-0.029-0.012-0.057-0.016-0.085c0.164,0.358,0.293,0.696,0.361,0.899c0.04,0.11,0.145,0.181,0.258,0.181
												c0.01,0,0.018,0,0.021,0c0.125-0.011,0.225-0.105,0.244-0.228c0.002-0.006,0.004-0.015,0.004-0.023
												c0.127,0.53,0.109,0.95-0.004,1.181c-0.078,0.159-0.176,0.173-0.207,0.177C201.482,86.585,201.457,86.585,201.432,86.585
												L201.432,86.585z"/>
										</g>
									</g>
									<g>
										<path fill="#5166AF" d="M224.908,88.815c-2.396-1.083-4.713-0.751-5.57-0.578c-2.92,0.585-4.991,2.902-4.985,2.911
											c0.002,0.002,0.278-0.181,0.834-0.486c0.763-0.417,2.021-1,3.649-1.322c0.107-0.021,0.25-0.046,0.412-0.073
											c-0.471,0.411-0.756,0.981-0.756,1.611c0,1.258,1.15,2.702,2.566,2.702c1.42,0,2.568-1.444,2.568-2.702
											c0-0.63-0.287-1.2-0.756-1.613c0.543,0.089,1.108,0.223,1.693,0.427c0.713,0.25,1.271,0.538,1.652,0.759
											c0.517,0.296,1.033,0.594,1.549,0.89C227.312,90.793,226.376,89.48,224.908,88.815z"/>
										<g>
											<path fill="#5166AF" d="M230.781,86.462c0,0-2.133-1.454-4.654-1.746c-2.521-0.29-7.078,0.68-9.311,0.583
												c0,0-1.55,0.195-2.229,0.484c-0.68,0.292-2.037,1.163-2.715,1.067c-0.681-0.097-0.776-1.455,0.094-3.005
												c0,0-0.094,0.774,0,1.358c0,0,0.682-1.94,1.359-2.424c0,0-0.389,1.162-0.482,1.745c0,0,1.257-1.358,1.453-1.649
												c0.192-0.291,3.102-0.484,5.721-0.775c2.617-0.292,5.723-1.648,5.723-1.648s1.162,0.874,2.133,1.745
												C228.841,83.069,230.296,85.008,230.781,86.462z"/>
											<path fill="#5166AF" d="M211.984,86.585c0.438,0,1.229-0.411,1.805-0.709c0.256-0.134,0.498-0.26,0.691-0.342
												c0.705-0.301,2.238-0.496,2.303-0.504c0.01-0.002,0.02-0.002,0.033-0.002c0.003,0,0.01,0,0.016,0
												c0.101,0.003,0.209,0.006,0.321,0.006c0.938,0,2.2-0.144,3.536-0.296l0.211-0.023c1.559-0.178,2.939-0.324,4.137-0.324
												c0.42,0,0.797,0.018,1.121,0.055c1.697,0.198,3.205,0.894,4.055,1.359c-0.609-1.237-1.713-2.678-2.522-3.406
												c-0.767-0.69-1.665-1.387-1.989-1.636c-0.652,0.275-3.316,1.348-5.652,1.606c-0.672,0.075-1.362,0.142-2.022,0.207
												c-1.438,0.144-3.229,0.32-3.524,0.478c-0.248,0.346-1.332,1.518-1.459,1.653c-0.051,0.057-0.123,0.088-0.196,0.088
												c-0.041,0-0.081-0.01-0.121-0.028c-0.106-0.052-0.168-0.17-0.147-0.288c0.004-0.029,0.01-0.057,0.016-0.085
												c-0.163,0.358-0.293,0.696-0.364,0.899c-0.037,0.11-0.14,0.181-0.257,0.181c-0.01,0-0.016,0-0.021,0
												c-0.125-0.011-0.227-0.105-0.244-0.228c-0.002-0.006-0.004-0.015-0.004-0.023c-0.131,0.53-0.107,0.95,0.004,1.181
												c0.08,0.159,0.174,0.173,0.207,0.177C211.936,86.585,211.958,86.585,211.984,86.585L211.984,86.585z"/>
										</g>
									</g>
									<g>
										<path fill="#5166AF" d="M240.375,49.018c-5.367-9.232-34.351-24.26-50.297-5.167c0,0-9.209-1.797-14.148,6.738
											c-4.945,8.537-6.87,21.361-5.074,27.875c1.797,6.514,5.385,9.396,6.747,16.688c0.847,4.527,2.942,5.841,2.942,5.841
											s-2.701-17.774,0.053-27.655c2.595,2.829,5.301,4.628,5.301,4.628c-2.152-2.182-3.21-5.719-3.729-8.473
											c0.229-0.383,0.207-0.411,0.472-0.747c2.894,5.872,8.688,8.377,8.688,8.377c-2.649-3.728-5.121-8.151-5.813-11.379
											c0.151-0.145,0.299-0.283,0.437-0.412c1.651,3.838,7.428,10.529,13.151,12.203c0,0-8.496-5.882-9.336-13.37
											c0.696,0.872,1.522,2.509,3.54,4.359c4.837,4.437,12.24,9.294,16.916,9.294c0.879,0-2.514-2.006-7.232-8.558
											c1.891,2.167,4.719,4.942,7.372,5.738c0,0-1.978-2.033-4.46-4.874c4.585,3.676,11.438,7.954,19.598,9.189
											c0,0-7.188-7.246-6.064-15.107c0,0,7.063-1.496,14.197,16.821c1.719,4.417,5.519,11.859,3.945,19.047
											c-0.652,2.988,3.516-1.501,6.186-11.078C247.582,75.298,246.275,59.164,240.375,49.018z"/>
									</g>
									<path fill="#5166AF" d="M164.042,50.625"/>
									<g>
										<path fill="#5166AF" d="M149.542,157.997c0,0,1.556,10.635,5.788,15.985c4.233,5.353,13.512,14.886,23.32,8.947
											c6.07-3.675,5.352-14.937,3.753-19.488c-1.597-4.551-8.183-10.59-8.183-10.59l-17.533,0.688L149.542,157.997z"/>
										<path fill="#5166AF" d="M192.791,141.883L181.193,99.99c-1.742-1.246-6.408,1.144-10.115,6.723
											c-0.537,0.804-0.07-0.996-0.681-0.586c-2.288,1.543-3.319,1.791-3.319,1.791l-5.761,1.476c0,0-2.329,0.737-4.325,0.719
											c-1.982-0.021-5.498,0.489-5.498,0.489l-5.166,1.945l-4.027,4.797c0,0-0.793,3.289-0.985,7.729
											c-0.325,6.957-0.643,16.389-0.201,18.879c0.669,3.795,3.345,10.492,7.192,12.301h-0.005
											c1.996,3.033,5.483,7.424,11.925,6.547c6.444-0.877,11.926-8.508,11.926-8.508h-0.008
											c3.397-2.121,9.117-7.408,11.69-8.347C186.712,144.913,192.791,141.883,192.791,141.883z"/>
										<path fill="#5166AF" d="M173.007,107.967c0,0-0.354,25.416-2.375,31.166c-2.033,5.76-10.084,3.107-10.791-1.073
											c-4.563,5.998-9.354,0.345-9.106-3.517c-6.21,6.172-8.615-2.924-9.269-9.623c-0.415-10.84,5.012-12.524,5.012-12.524
											l5.167-1.946c0,0,3.519-0.509,5.501-0.488c1.995,0.019,4.324-0.721,4.324-0.721l8.486-1.699c0,0-0.051,0.725,1.121-0.828
											L173.007,107.967z"/>
										<g>
											<g>
												<path fill="#5166AF" d="M238.619,105.527c1.633,0,2.965,1.336,2.965,2.97v30.422c0,1.633-1.332,2.967-2.965,2.967
													h-65.175c-1.634,0-2.971-1.334-2.971-2.967v-30.422c0-1.634,1.337-2.97,2.971-2.97H238.619z"/>
											</g>
											<g>
												<rect x="175.175" y="108.124" fill="#5166AF" width="58.744" height="31.166"/>
											</g>
										</g>
										<path fill="#5166AF" d="M184.24,104.299c0,2.646-2.41,4.793-5.392,4.793c-2.976,0-8.892-2.146-8.892-4.793
											c0-2.646,5.916-4.791,8.892-4.791C181.83,99.509,184.24,101.655,184.24,104.299z"/>
										<line fill="none" x1="150.685" y1="136.04" x2="150.685" y2="110.812"/>
										<line fill="none" x1="160.227" y1="139.618" x2="160.227" y2="110.426"/>
									</g>
								</g>
								<g>
									<g>
										<g>
											<g>
												<path fill="#FFFFFF" stroke="#5166AF" stroke-width="3" stroke-miterlimit="10" d="M164.72,91.564l1.602,0.103
													l3.051,21.541c0,0-5.797,5.438-8.459,0.237c-5.543-10.823-7.659-8.618-6.924-17.563c0.486-5.97,9.678-5.748,9.678-5.748
													L164.72,91.564z"/>
												<path fill="#FFFFFF" stroke="#11133E" stroke-width="3" stroke-miterlimit="10" d="M222.867,91.564l-1.604,0.103
													l-3.047,21.541c0,0,5.795,5.438,8.455,0.237c5.548-10.823,7.662-8.618,6.93-17.563c-0.487-5.97-9.678-5.748-9.678-5.748
													L222.867,91.564z"/>
												<path fill="#FFFFFF" stroke="#11133E" stroke-width="3" stroke-miterlimit="10" d="M214.447,151.314l-0.953-20.405
													h-39.632l-0.95,20.405c-23.996,5.81-40.824,21.769-40.824,28.071c0,8.187-7.563,28.898-7.563,28.898h69.154h69.156
													c0,0,0-23.337,0-31.525C262.835,170.458,238.441,157.124,214.447,151.314z"/>
												<path fill="#FFFFFF" stroke="#5166AF" stroke-width="3" stroke-miterlimit="10" d="M193.679,51.923
													c-33.773,0-34.737,26.419-33.471,47.872c0.654,11.118,5.338,20.159,10.938,27.79
													c5.173,7.047,10.791,13.125,22.533,13.125c11.15,0,16.517-3.358,21.691-9.799c6.178-7.691,11.094-19.479,11.78-31.115
													C228.417,78.342,227.451,51.923,193.679,51.923z"/>
											</g>
										</g>
										<g>
											<path fill="#FFFFFF" stroke="#5166AF" stroke-width="3" stroke-miterlimit="10" d="M213.023,150.303
												c-7.922,5.467-4.941,9.667-17.221,10.938c0,0-11.326,0.848-18.102-2.541c-6.775-3.388-8.705-7.314-8.705-7.314
												c-22.854,6.176-36.909,21.994-36.909,28c0,8.188-8.19,50.689-8.19,50.689h69.156h69.155c0,0,0.082-45.933,0.082-54.119
												C262.292,169.579,237.298,155.995,213.023,150.303z"/>
										</g>
										<g>
											<g>
												<path fill="#5166AF" d="M172.275,98.148c2.545-1.149,5.006-0.797,5.919-0.614c3.104,0.622,5.306,3.079,5.298,3.089
													c-0.005,0.003-0.293-0.192-0.887-0.515c-0.809-0.443-2.146-1.063-3.877-1.402c-0.117-0.022-0.266-0.05-0.438-0.079
													c0.496,0.436,0.801,1.042,0.801,1.71c0,1.334-1.223,2.867-2.729,2.867c-1.508,0-2.73-1.533-2.73-2.867
													c0-0.67,0.311-1.274,0.806-1.714c-0.575,0.096-1.181,0.238-1.798,0.453c-0.764,0.267-1.354,0.571-1.76,0.806
													c-0.549,0.315-1.098,0.63-1.646,0.945C169.718,100.245,170.71,98.854,172.275,98.148z"/>
											</g>
											<g>
												<g>
													<path fill="#5166AF" d="M166.031,95.651c0,0,2.266-1.543,4.945-1.854c2.682-0.306,7.525,0.721,9.896,0.618
														c0,0,1.646,0.207,2.369,0.515c0.721,0.31,2.161,1.234,2.885,1.133c0.723-0.104,0.824-1.545-0.103-3.19
														c0,0,0.103,0.824,0,1.44c0,0-0.722-2.059-1.444-2.571c0,0,0.414,1.233,0.518,1.851c0,0-1.34-1.44-1.547-1.749
														c-0.206-0.308-3.295-0.513-6.079-0.822c-2.785-0.31-6.083-1.75-6.083-1.75s-1.236,0.928-2.268,1.852
														C168.091,92.05,166.546,94.107,166.031,95.651z"/>
												</g>
												<g>
													<path fill="#5166AF" d="M186.007,95.782c-0.467,0-1.303-0.436-1.916-0.754c-0.271-0.141-0.532-0.275-0.737-0.361
														c-0.748-0.321-2.376-0.528-2.446-0.537c-0.011-0.001-0.023-0.001-0.033-0.001c-0.006,0-0.008,0-0.016,0
														c-0.105,0.004-0.223,0.006-0.344,0.006c-0.995,0-2.34-0.152-3.76-0.313l-0.223-0.026
														c-1.654-0.188-3.123-0.343-4.398-0.343c-0.444,0-0.846,0.02-1.188,0.06c-1.806,0.208-3.407,0.947-4.312,1.441
														c0.65-1.313,1.818-2.843,2.682-3.616c0.814-0.732,1.77-1.471,2.114-1.735c0.696,0.292,3.526,1.43,6.01,1.705
														c0.713,0.08,1.448,0.151,2.147,0.221c1.531,0.153,3.433,0.339,3.744,0.507c0.265,0.366,1.42,1.61,1.555,1.754
														c0.054,0.061,0.133,0.093,0.212,0.093c0.042,0,0.086-0.01,0.126-0.03c0.113-0.056,0.179-0.18,0.156-0.306
														c-0.006-0.029-0.012-0.058-0.014-0.091c0.17,0.381,0.311,0.741,0.385,0.955c0.041,0.117,0.149,0.191,0.271,0.191
														c0.012,0,0.018,0,0.025,0c0.131-0.009,0.236-0.11,0.26-0.24c0.002-0.008,0.002-0.017,0.004-0.023
														c0.137,0.562,0.115,1.006-0.008,1.252c-0.082,0.167-0.188,0.183-0.219,0.187
														C186.061,95.781,186.037,95.782,186.007,95.782L186.007,95.782z"/>
												</g>
											</g>
										</g>
										<g>
											<path fill="#11133E" d="M210.957,98.148c-2.545-1.149-5.006-0.797-5.918-0.614c-3.106,0.622-5.306,3.079-5.297,3.089
												c0.002,0.003,0.293-0.192,0.885-0.515c0.811-0.443,2.146-1.063,3.877-1.402c0.115-0.022,0.265-0.05,0.438-0.079
												c-0.496,0.436-0.802,1.042-0.802,1.71c0,1.334,1.224,2.867,2.729,2.867c1.51,0,2.729-1.533,2.729-2.867
												c0-0.67-0.308-1.274-0.804-1.714c0.578,0.096,1.179,0.238,1.797,0.453c0.761,0.267,1.354,0.571,1.759,0.806
												c0.548,0.315,1.101,0.63,1.646,0.945C213.513,100.245,212.52,98.854,210.957,98.148z"/>
											<g>
												<path fill="#11133E" d="M217.201,95.651c0,0-2.269-1.543-4.949-1.854c-2.68-0.306-7.523,0.721-9.894,0.618
													c0,0-1.647,0.207-2.37,0.515c-0.723,0.31-2.162,1.234-2.885,1.133c-0.723-0.104-0.823-1.545,0.104-3.19
													c0,0-0.104,0.824,0,1.44c0,0,0.719-2.059,1.443-2.571c0,0-0.413,1.233-0.516,1.851c0,0,1.339-1.44,1.545-1.749
													c0.207-0.308,3.299-0.513,6.08-0.822c2.781-0.31,6.082-1.75,6.082-1.75s1.236,0.928,2.266,1.852
													C215.139,92.05,216.684,94.107,217.201,95.651z"/>
												<path fill="#11133E" d="M197.223,95.782c0.465,0,1.307-0.436,1.92-0.754c0.271-0.141,0.528-0.275,0.733-0.361
													c0.748-0.321,2.377-0.528,2.447-0.537c0.01-0.001,0.021-0.001,0.034-0.001c0.004,0,0.011,0,0.015,0
													c0.107,0.004,0.223,0.006,0.346,0.006c0.994,0,2.338-0.152,3.758-0.313l0.225-0.026
													c1.653-0.188,3.125-0.343,4.396-0.343c0.445,0,0.845,0.02,1.189,0.06c1.807,0.208,3.406,0.947,4.31,1.441
													c-0.646-1.313-1.818-2.843-2.679-3.616c-0.814-0.732-1.771-1.471-2.117-1.735c-0.693,0.292-3.523,1.43-6.008,1.705
													c-0.713,0.08-1.447,0.151-2.148,0.221c-1.529,0.153-3.43,0.339-3.743,0.507c-0.265,0.366-1.417,1.61-1.553,1.754
													c-0.056,0.061-0.134,0.093-0.212,0.093c-0.043,0-0.088-0.01-0.129-0.03c-0.112-0.056-0.178-0.18-0.158-0.306
													c0.007-0.029,0.015-0.058,0.02-0.091c-0.173,0.381-0.313,0.741-0.388,0.955c-0.04,0.117-0.149,0.191-0.272,0.191
													c-0.01,0-0.019,0-0.021,0c-0.134-0.009-0.242-0.11-0.262-0.24c0-0.008-0.002-0.017-0.006-0.023
													c-0.137,0.562-0.111,1.006,0.008,1.252c0.085,0.167,0.186,0.183,0.22,0.187
													C197.169,95.781,197.195,95.782,197.223,95.782L197.223,95.782z"/>
											</g>
										</g>
										<path fill="#5166AF" d="M227.398,55.915c-5.709-9.795-36.51-25.744-53.456-5.481c0,0-9.79-1.909-15.04,7.148
											c-5.252,9.06-7.301,22.669-5.392,29.581c1.91,6.914,5.724,9.972,7.171,17.708c0.896,4.805,3.127,6.199,3.127,6.199
											s-2.868-18.861,0.057-29.346c2.758,3.001,5.635,4.911,5.635,4.911c-2.289-2.315-3.412-6.069-3.963-8.99
											c0.241-0.409,0.219-0.438,0.5-0.793c3.073,6.231,9.237,8.891,9.237,8.891c-2.819-3.957-5.446-8.651-6.181-12.076
											c0.158-0.153,0.316-0.301,0.463-0.437c1.756,4.073,7.893,11.173,13.977,12.949c0,0-9.033-6.242-9.92-14.189
											c0.739,0.926,1.615,2.663,3.762,4.627c5.142,4.708,13.008,9.862,17.978,9.862c0.937,0-2.67-2.127-7.688-9.081
											c2.012,2.298,5.019,5.244,7.836,6.089c0,0-2.1-2.158-4.737-5.172c4.872,3.901,12.151,8.44,20.825,9.752
											c0,0-7.639-7.69-6.445-16.032c0,0,7.505-1.586,15.087,17.851c1.828,4.688,5.868,12.583,4.196,20.212
											c-0.693,3.172,3.734-1.593,6.57-11.755C235.056,83.803,233.667,66.682,227.398,55.915z"/>
										<path fill="#414141" d="M146.272,57.62"/>
										<g>
											<path fill="#FFFFFF" stroke="#5166AF" stroke-width="3" stroke-miterlimit="10" d="M129.54,169.711
												c0,0-10.09,25.666-5.592,31.344c4.497,5.678,30.173,30.846,19.75,37.146c-19.179,11.592,31.311,72.086,19.348-53.013
												c-0.489-5.097-7.118-18.315-7.118-18.315l-18.635,0.729L129.54,169.711z"/>
											<path fill="#FFFFFF" stroke="#5166AF" stroke-width="3" stroke-miterlimit="10" d="M176.824,154.461l-12.326-44.455
												c-1.852-1.321-6.812,1.214-10.753,7.134c-0.568,0.854-0.072-1.056-0.719-0.621c-2.434,1.638-3.531,1.897-3.531,1.897
												l-6.118,1.568c0,0-2.479,0.782-4.597,0.762c-2.107-0.021-5.846,0.52-5.846,0.52l-5.49,2.066l-4.279,5.088
												c0,0-0.844,3.492-1.049,8.203c-0.344,7.381-0.682,17.391-0.212,20.035c0.711,4.025,3.554,11.133,7.645,13.051h-0.008
												c2.122,3.22,5.831,7.879,12.677,6.947c6.849-0.93,12.673-9.029,12.673-9.029h-0.01c3.613-2.25,9.689-7.86,12.429-8.854
												C170.365,157.676,176.824,154.461,176.824,154.461z"/>
											<path fill="#FFFFFF" stroke="#5166AF" stroke-width="3" stroke-miterlimit="10" d="M155.216,118.472
												c0,0-0.375,26.971-2.524,33.073c-2.16,6.111-10.717,3.295-11.469-1.139c-4.847,6.364-9.942,0.365-9.678-3.732
												c-6.599,6.55-9.156-3.102-9.848-10.211c-0.444-11.502,5.324-13.291,5.324-13.291l5.492-2.065
												c0,0,3.738-0.539,5.842-0.519c2.122,0.021,4.6-0.762,4.6-0.762l9.023-1.805c0,0-0.057,0.77,1.184-0.879L155.216,118.472z
												"/>
											<g>
												<g>
													<path fill="#282663" d="M225.533,115.881c1.731,0,3.152,1.418,3.152,3.15v32.284c0,1.733-1.421,3.149-3.152,3.149
														h-69.271c-1.733,0-3.156-1.416-3.156-3.149v-32.284c0-1.732,1.423-3.15,3.156-3.15H225.533z"/>
												</g>
												<g>
													<rect x="158.102" y="118.635" fill="#5166AF" width="62.435" height="33.074"/>
												</g>
											</g>
											<path fill="#FFFFFF" stroke="#5166AF" stroke-width="3" stroke-miterlimit="10" d="M167.736,114.581
												c0,2.808-2.563,5.084-5.729,5.084c-3.164,0-9.447-2.274-9.447-5.084c0-2.808,6.283-5.086,9.447-5.086
												C165.173,109.495,167.736,111.772,167.736,114.581z"/>
											
												<line fill="none" stroke="#5166AF" stroke-width="3" stroke-miterlimit="10" x1="132.073" y1="148.26" x2="132.073" y2="121.491"/>
											
												<line fill="none" stroke="#5166AF" stroke-width="3" stroke-miterlimit="10" x1="142.217" y1="152.059" x2="142.217" y2="121.081"/>
										</g>
									</g>
									<g>
										<g>
											<defs>
												<rect id="SVGID_5_" x="192.378" y="22.582" width="81.18" height="186.858"/>
											</defs>
											<clipPath id="SVGID_6_">
												<use xlink:href="#SVGID_5_"  overflow="visible"/>
											</clipPath>
											<g clip-path="url(#SVGID_6_)">
												<g>
													<g>
														<path fill="#D1D3D4" stroke="#11133E" stroke-width="3" stroke-miterlimit="10" d="M164.72,91.564l1.602,0.103
															l3.051,21.541c0,0-5.797,5.438-8.459,0.237c-5.543-10.823-7.659-8.618-6.924-17.563
															c0.486-5.97,9.678-5.748,9.678-5.748L164.72,91.564z"/>
														<path fill="#D1D3D4" stroke="#151C30" stroke-width="3" stroke-miterlimit="10" d="M222.867,91.564l-1.604,0.103
															l-3.047,21.541c0,0,5.795,5.438,8.455,0.237c5.548-10.823,7.662-8.618,6.93-17.563
															c-0.487-5.97-9.678-5.748-9.678-5.748L222.867,91.564z"/>
														<path fill="#D1D3D4" stroke="#11133E" stroke-width="3" stroke-miterlimit="10" d="M214.447,151.314l-0.953-20.405
															h-39.632l-0.95,20.405c-23.996,5.81-40.824,21.769-40.824,28.071c0,8.187-7.563,28.898-7.563,28.898h69.154h69.156
															c0,0,0-23.337,0-31.525C262.835,170.458,238.441,157.124,214.447,151.314z"/>
														<path fill="#D1D3D4" stroke="#151C30" stroke-width="3" stroke-miterlimit="10" d="M193.679,51.923
															c-33.773,0-34.737,26.419-33.471,47.872c0.654,11.118,5.338,20.159,10.938,27.79
															c5.173,7.047,10.791,13.125,22.533,13.125c11.15,0,16.517-3.358,21.691-9.799c6.178-7.691,11.094-19.479,11.78-31.115
															C228.417,78.342,227.451,51.923,193.679,51.923z"/>
													</g>
												</g>
												<g>
													<path fill="#D1D3D4" stroke="#151C30" stroke-width="3" stroke-miterlimit="10" d="M213.023,150.303
														c-7.922,5.467-4.941,9.667-17.221,10.938c0,0-11.326,0.848-18.102-2.541c-6.775-3.388-8.705-7.314-8.705-7.314
														c-22.854,6.176-36.909,21.994-36.909,28c0,8.188-8.19,50.689-8.19,50.689h69.156h69.155c0,0,0.082-45.933,0.082-54.119
														C262.292,169.579,237.298,155.995,213.023,150.303z"/>
												</g>
												<g>
													<path fill="#11133E" d="M172.275,98.148c2.545-1.149,5.006-0.797,5.919-0.614c3.104,0.622,5.306,3.079,5.298,3.089
														c-0.005,0.003-0.293-0.192-0.887-0.515c-0.809-0.443-2.146-1.063-3.877-1.402c-0.117-0.022-0.266-0.05-0.438-0.079
														c0.496,0.436,0.801,1.042,0.801,1.71c0,1.334-1.223,2.867-2.729,2.867c-1.508,0-2.73-1.533-2.73-2.867
														c0-0.67,0.311-1.274,0.806-1.714c-0.575,0.096-1.181,0.238-1.798,0.453c-0.764,0.267-1.354,0.571-1.76,0.806
														c-0.549,0.315-1.098,0.63-1.646,0.945C169.718,100.245,170.71,98.854,172.275,98.148z"/>
													<g>
														<path fill="#11133E" d="M166.031,95.651c0,0,2.266-1.543,4.945-1.854c2.682-0.306,7.525,0.721,9.896,0.618
															c0,0,1.646,0.207,2.369,0.515c0.721,0.31,2.161,1.234,2.885,1.133c0.723-0.104,0.824-1.545-0.103-3.19
															c0,0,0.103,0.824,0,1.44c0,0-0.722-2.059-1.444-2.571c0,0,0.414,1.233,0.518,1.851c0,0-1.34-1.44-1.547-1.749
															c-0.206-0.308-3.295-0.513-6.079-0.822c-2.785-0.31-6.083-1.75-6.083-1.75s-1.236,0.928-2.268,1.852
															C168.091,92.05,166.546,94.107,166.031,95.651z"/>
														<path fill="#11133E" d="M186.007,95.782c-0.467,0-1.303-0.436-1.916-0.754c-0.271-0.141-0.532-0.275-0.737-0.361
															c-0.748-0.321-2.376-0.528-2.446-0.537c-0.011-0.001-0.023-0.001-0.033-0.001c-0.006,0-0.008,0-0.016,0
															c-0.105,0.004-0.223,0.006-0.344,0.006c-0.995,0-2.34-0.152-3.76-0.313l-0.223-0.026
															c-1.654-0.188-3.123-0.343-4.398-0.343c-0.444,0-0.846,0.02-1.188,0.06c-1.806,0.208-3.407,0.947-4.312,1.441
															c0.65-1.313,1.818-2.843,2.682-3.616c0.814-0.732,1.77-1.471,2.114-1.735c0.696,0.292,3.526,1.43,6.01,1.705
															c0.713,0.08,1.448,0.151,2.147,0.221c1.531,0.153,3.433,0.339,3.744,0.507c0.265,0.366,1.42,1.61,1.555,1.754
															c0.054,0.061,0.133,0.093,0.212,0.093c0.042,0,0.086-0.01,0.126-0.03c0.113-0.056,0.179-0.18,0.156-0.306
															c-0.006-0.029-0.012-0.058-0.014-0.091c0.17,0.381,0.311,0.741,0.385,0.955c0.041,0.117,0.149,0.191,0.271,0.191
															c0.012,0,0.018,0,0.025,0c0.131-0.009,0.236-0.11,0.26-0.24c0.002-0.008,0.002-0.017,0.004-0.023
															c0.137,0.562,0.115,1.006-0.008,1.252c-0.082,0.167-0.188,0.183-0.219,0.187
															C186.061,95.781,186.037,95.782,186.007,95.782L186.007,95.782z"/>
													</g>
												</g>
												<g>
													<path fill="#151C30" d="M210.957,98.148c-2.545-1.149-5.006-0.797-5.918-0.614c-3.106,0.622-5.306,3.079-5.297,3.089
														c0.002,0.003,0.293-0.192,0.885-0.515c0.811-0.443,2.146-1.063,3.877-1.402c0.115-0.022,0.265-0.05,0.438-0.079
														c-0.496,0.436-0.802,1.042-0.802,1.71c0,1.334,1.224,2.867,2.729,2.867c1.51,0,2.729-1.533,2.729-2.867
														c0-0.67-0.308-1.274-0.804-1.714c0.578,0.096,1.179,0.238,1.797,0.453c0.761,0.267,1.354,0.571,1.759,0.806
														c0.548,0.315,1.101,0.63,1.646,0.945C213.513,100.245,212.52,98.854,210.957,98.148z"/>
													<g>
														<path fill="#151C30" d="M217.201,95.651c0,0-2.269-1.543-4.949-1.854c-2.68-0.306-7.523,0.721-9.894,0.618
															c0,0-1.647,0.207-2.37,0.515c-0.723,0.31-2.162,1.234-2.885,1.133c-0.723-0.104-0.823-1.545,0.104-3.19
															c0,0-0.104,0.824,0,1.44c0,0,0.719-2.059,1.443-2.571c0,0-0.413,1.233-0.516,1.851c0,0,1.339-1.44,1.545-1.749
															c0.207-0.308,3.299-0.513,6.08-0.822c2.781-0.31,6.082-1.75,6.082-1.75s1.236,0.928,2.266,1.852
															C215.139,92.05,216.684,94.107,217.201,95.651z"/>
														<path fill="#151C30" d="M197.223,95.782c0.465,0,1.307-0.436,1.92-0.754c0.271-0.141,0.528-0.275,0.733-0.361
															c0.748-0.321,2.377-0.528,2.447-0.537c0.01-0.001,0.021-0.001,0.034-0.001c0.004,0,0.011,0,0.015,0
															c0.107,0.004,0.223,0.006,0.346,0.006c0.994,0,2.338-0.152,3.758-0.313l0.225-0.026
															c1.653-0.188,3.125-0.343,4.396-0.343c0.445,0,0.845,0.02,1.189,0.06c1.807,0.208,3.406,0.947,4.31,1.441
															c-0.646-1.313-1.818-2.843-2.679-3.616c-0.814-0.732-1.771-1.471-2.117-1.735c-0.693,0.292-3.523,1.43-6.008,1.705
															c-0.713,0.08-1.447,0.151-2.148,0.221c-1.529,0.153-3.43,0.339-3.743,0.507c-0.265,0.366-1.417,1.61-1.553,1.754
															c-0.056,0.061-0.134,0.093-0.212,0.093c-0.043,0-0.088-0.01-0.129-0.03c-0.112-0.056-0.178-0.18-0.158-0.306
															c0.007-0.029,0.015-0.058,0.02-0.091c-0.173,0.381-0.313,0.741-0.388,0.955c-0.04,0.117-0.149,0.191-0.272,0.191
															c-0.01,0-0.019,0-0.021,0c-0.134-0.009-0.242-0.11-0.262-0.24c0-0.008-0.002-0.017-0.006-0.023
															c-0.137,0.562-0.111,1.006,0.008,1.252c0.085,0.167,0.186,0.183,0.22,0.187
															C197.169,95.781,197.195,95.782,197.223,95.782L197.223,95.782z"/>
													</g>
												</g>
												<path fill="#151C30" d="M227.398,55.915c-5.709-9.795-36.51-25.744-53.456-5.481c0,0-9.79-1.909-15.04,7.148
													c-5.252,9.06-7.301,22.669-5.392,29.581c1.91,6.914,5.724,9.972,7.171,17.708c0.896,4.805,3.127,6.199,3.127,6.199
													s-2.868-18.861,0.057-29.346c2.758,3.001,5.635,4.911,5.635,4.911c-2.289-2.315-3.412-6.069-3.963-8.99
													c0.241-0.409,0.219-0.438,0.5-0.793c3.073,6.231,9.237,8.891,9.237,8.891c-2.819-3.957-5.446-8.651-6.181-12.076
													c0.158-0.153,0.316-0.301,0.463-0.437c1.756,4.073,7.893,11.173,13.977,12.949c0,0-9.033-6.242-9.92-14.189
													c0.739,0.926,1.615,2.663,3.762,4.627c5.142,4.708,13.008,9.862,17.978,9.862c0.937,0-2.67-2.127-7.688-9.081
													c2.012,2.298,5.019,5.244,7.836,6.089c0,0-2.1-2.158-4.737-5.172c4.872,3.901,12.151,8.44,20.825,9.752
													c0,0-7.639-7.69-6.445-16.032c0,0,7.505-1.586,15.087,17.851c1.828,4.688,5.868,12.583,4.196,20.212
													c-0.693,3.172,3.734-1.593,6.57-11.755C235.056,83.803,233.667,66.682,227.398,55.915z"/>
												<path fill="#414141" d="M146.272,57.62"/>
												<g>
													<path fill="#FFFFFF" stroke="#11133E" stroke-width="3" stroke-miterlimit="10" d="M129.54,169.711
														c0,0-10.09,25.666-5.592,31.344c4.497,5.678,30.173,30.846,19.75,37.146c-19.179,11.592,31.311,72.086,19.348-53.013
														c-0.489-5.097-7.118-18.315-7.118-18.315l-18.635,0.729L129.54,169.711z"/>
													<path fill="#FFFFFF" stroke="#11133E" stroke-width="3" stroke-miterlimit="10" d="M176.824,154.461l-12.326-44.455
														c-1.852-1.321-6.812,1.214-10.753,7.134c-0.568,0.854-0.072-1.056-0.719-0.621c-2.434,1.638-3.531,1.897-3.531,1.897
														l-6.118,1.568c0,0-2.479,0.782-4.597,0.762c-2.107-0.021-5.846,0.52-5.846,0.52l-5.49,2.066l-4.279,5.088
														c0,0-0.844,3.492-1.049,8.203c-0.344,7.381-0.682,17.391-0.212,20.035c0.711,4.025,3.554,11.133,7.645,13.051h-0.008
														c2.122,3.22,5.831,7.879,12.677,6.947c6.849-0.93,12.673-9.029,12.673-9.029h-0.01c3.613-2.25,9.689-7.86,12.429-8.854
														C170.365,157.676,176.824,154.461,176.824,154.461z"/>
													<path fill="#FFFFFF" stroke="#11133E" stroke-width="3" stroke-miterlimit="10" d="M155.798,118.472
														c0,0-0.375,26.971-2.524,33.073c-2.16,6.111-10.717,3.295-11.469-1.139c-4.847,6.364-9.942,0.365-9.678-3.732
														c-6.599,6.55-9.156-3.102-9.848-10.211c-0.444-11.502,5.324-13.291,5.324-13.291l5.492-2.065
														c0,0,3.738-0.539,5.842-0.519c2.122,0.021,4.6-0.762,4.6-0.762l9.023-1.805c0,0-0.057,0.77,1.184-0.879
														L155.798,118.472z"/>
													<g>
														<g>
															<path fill="#151C30" d="M225.533,115.881c1.731,0,3.152,1.418,3.152,3.15v32.284c0,1.733-1.421,3.149-3.152,3.149
																h-69.271c-1.733,0-3.156-1.416-3.156-3.149v-32.284c0-1.732,1.423-3.15,3.156-3.15H225.533z"/>
														</g>
														<g>
															<rect x="158.102" y="118.635" fill="#3B4A80" width="62.435" height="33.074"/>
														</g>
													</g>
													<path fill="#FFFFFF" stroke="#11133E" stroke-width="3" stroke-miterlimit="10" d="M167.736,114.581
														c0,2.808-2.563,5.084-5.729,5.084c-3.164,0-9.447-2.274-9.447-5.084c0-2.808,6.283-5.086,9.447-5.086
														C165.173,109.495,167.736,111.772,167.736,114.581z"/>
													
														<line fill="none" stroke="#11133E" stroke-width="3" stroke-miterlimit="10" x1="132.073" y1="148.26" x2="132.073" y2="121.491"/>
													
														<line fill="none" stroke="#11133E" stroke-width="3" stroke-miterlimit="10" x1="142.217" y1="152.059" x2="142.217" y2="121.081"/>
												</g>
											</g>
										</g>
									</g>
									<text transform="matrix(1 0 0 1 161.5405 134.2739)" fill="#FFFFFF" font-family="'MyriadPro-Bold'" font-size="12">YEONDAM</text>
									<text transform="matrix(1 0 0 1 161.3511 146.0933)" fill="#FFFFFF" font-family="'MyriadPro-Bold'" font-size="12">PARK</text>
									<g>
										<g>
											<defs>
												<rect id="SVGID_7_" x="192.378" y="118.635" width="28.158" height="33.074"/>
											</defs>
											<defs>
												<rect id="SVGID_8_" x="192.378" y="118.635" width="28.158" height="33.074"/>
											</defs>
											<clipPath id="SVGID_9_">
												<use xlink:href="#SVGID_7_"  overflow="visible"/>
											</clipPath>
											<clipPath id="SVGID_10_" clip-path="url(#SVGID_9_)">
												<use xlink:href="#SVGID_8_"  overflow="visible"/>
											</clipPath>
											<g clip-path="url(#SVGID_10_)">
												<text transform="matrix(1 0 0 1 161.5405 134.2739)" fill="#B4BEE1" font-family="'MyriadPro-Bold'" font-size="12">YEONDAM</text>
											</g>
											<g clip-path="url(#SVGID_10_)">
												<text transform="matrix(1 0 0 1 163.355 146.0933)" fill="#B4BEE1" font-family="'MyriadPro-Bold'" font-size="12">PARK</text>
											</g>
										</g>
									</g>
								</g>
							</g>
						</g>
						<g>
							
								<rect id="SVGID_55_" x="124.508" y="27.667" fill="none" stroke="#5166AF" stroke-width="4" stroke-miterlimit="10" width="152.4" height="146.83"/>
						</g>
					</g>
				</g>
			</g>
		</g>
	</g>
</g>
<rect x="273.5" y="27.565" fill="#5166AF" width="1.944" height="146.187"/>
</svg>
